<svg xmlns="http://www.w3.org/2000/svg" viewBox="0 0 120 120">
  <defs>
    <linearGradient id="c" x1="0" y1="0" x2="1" y2="1">
      <stop offset="0%" stop-color="#12A8C4"/>
      <stop offset="100%" stop-color="#22C7DF"/>
    </linearGradient>
    <linearGradient id="n" x1="0" y1="0" x2="1" y2="1">
      <stop offset="0%" stop-color="#123F7A"/>
      <stop offset="100%" stop-color="#0D2A5C"/>
    </linearGradient>
  </defs>
  <rect width="120" height="120" rx="24" fill="#050B18"/>
  <g stroke-linecap="round" stroke-linejoin="round" fill="none">
    <path d="M 74.9 46.2 L 80.3 49.2 L 81.5 60.7" stroke="url(#c)" stroke-width="3.4"/>
    <path d="M 74.9 46.2 L 80.3 49.2 L 81.5 60.7" stroke="url(#c)" stroke-width="3.4" transform="rotate(90 60 60)"/>
    <path d="M 45.1 46.2 L 39.7 49.2 L 38.5 60.7" stroke="url(#n)" stroke-width="3.4"/>
    <path d="M 45.1 46.2 L 39.7 49.2 L 38.5 60.7" stroke="url(#n)" stroke-width="3.4" transform="rotate(90 60 60)"/>
    <path d="M 74.9 73.8 L 80.3 70.8 L 81.5 59.3" stroke="url(#n)" stroke-width="3.4" transform="rotate(180 60 60)"/>
    <path d="M 45.1 73.8 L 39.7 70.8 L 38.5 59.3" stroke="url(#c)" stroke-width="3.4" transform="rotate(180 60 60)"/>
  </g>
  <circle cx="60" cy="60" r="15" fill="none" stroke="url(#n)" stroke-width="9"/>
</svg>
